<svg xmlns="http://www.w3.org/2000/svg" viewBox="0 0 103.15 79.53"><defs><style>.cls-1{fill:#1d1d26;}.cls-2{fill:#424242;}.cls-10,.cls-3,.cls-5{fill:none;stroke-miterlimit:10;}.cls-3{stroke:#1c1e26;}.cls-4{fill:#595750;}.cls-5{stroke:#f9b925;}.cls-6{opacity:0.05;}.cls-7{fill:#fcf7ee;}.cls-8{opacity:0.9;}.cls-9{fill:#f9b925;opacity:0.81;}.cls-10{stroke:#fff;stroke-width:0.5px;}.cls-11{opacity:0.1;}</style></defs><title>Asset 7</title><g id="Layer_2" data-name="Layer 2"><g id="Layer_1-2" data-name="Layer 1"><g id="FINAL"><path class="cls-1" d="M75.66,20.8a7.69,7.69,0,0,0-6.93,0L1.43,59.65c-1.91,1.1-1.91,2.9,0,4L27.49,78.7a7.69,7.69,0,0,0,6.93,0l67.3-38.85c1.91-1.1,1.91-2.9,0-4Z"/><polygon class="cls-1" points="0.02 56.89 0.02 61.65 30.96 77.1 98.89 39.52 103.12 37.84 103.12 33.08 42.85 37.84 0.02 56.89"/><path class="cls-2" d="M75.66,15.9a7.69,7.69,0,0,0-6.93,0L1.43,54.75c-1.91,1.1-1.91,2.9,0,4l26.06,15a7.69,7.69,0,0,0,6.93,0L101.72,35c1.91-1.1,1.91-2.9,0-4Z"/><path class="cls-3" d="M71.58,18.42a3.86,3.86,0,0,0-3.47,0l-62.3,36a1.05,1.05,0,0,0,0,2L31.57,71.27a3.85,3.85,0,0,0,3.47,0l62.3-36a1.05,1.05,0,0,0,0-2Z"/><path class="cls-4" d="M71.58,19a3.86,3.86,0,0,0-3.47,0L5.81,55a1.05,1.05,0,0,0,0,2L31.57,71.87a3.85,3.85,0,0,0,3.47,0l62.3-36a1.05,1.05,0,0,0,0-2Z"/><path class="cls-5" d="M35.27,64.49l-29.49-17c-1-.56-.85-1.53.27-2.17L68,9.52a4.21,4.21,0,0,1,3.76-.16l29.5,17c1,.56.84,1.53-.27,2.18L39,64.33A4.17,4.17,0,0,1,35.27,64.49Z"/><g class="cls-6"><path class="cls-7" d="M76.32,46c0,1.1.78,1.55,1.73,1l6.4-3.69a3.85,3.85,0,0,0,1.73-3V29.46a3.85,3.85,0,0,0-1.73-3l-6.4-3.7c-1-.55-1.73-.1-1.73,1Z"/><path class="cls-7" d="M90.18,29.77c-1-.55-1.73-.1-1.73,1V39c0,1.1.78,1.55,1.73,1l7.16-4.14a1.05,1.05,0,0,0,0-2Z"/><path class="cls-7" d="M61.2,54.77c0,1.1.78,1.55,1.73,1L69,52.25a3.85,3.85,0,0,0,1.73-3V20.55a3.82,3.82,0,0,0-.46-2.26c-.25-.15-1.23.18-2.19.73l-5.18,3a3.85,3.85,0,0,0-1.73,3Z"/><path class="cls-7" d="M20.15,63.28a3.85,3.85,0,0,0,1.73,3l3.22,1.86c.95.55,1.73.1,1.73-1V44.86c0-1.1-.78-1.55-1.73-1l-3.22,1.86a3.85,3.85,0,0,0-1.73,3Z"/><path class="cls-7" d="M9.32,55c0-1.1-.78-1.55-1.74-1L5.81,55a1.05,1.05,0,0,0,0,2l1.77,1c1,.55,1.74.1,1.74-1Z"/><path class="cls-7" d="M39.2,67.47c0,1.1.78,1.55,1.74,1l2.89-1.67a3.85,3.85,0,0,0,1.73-3V34c0-1.1-.78-1.55-1.73-1l-2.89,1.68a3.83,3.83,0,0,0-1.74,3Z"/></g><path d="M16.67,70.78l-4.42-2.55a1.47,1.47,0,0,1-.7-1.11h0c0-.39.31-.53.7-.3l4.42,2.55a1.44,1.44,0,0,1,.7,1.11h0C17.37,70.87,17.06,71,16.67,70.78Z"/><ellipse cx="5.75" cy="63.74" rx="0.77" ry="1.37" transform="translate(-37.16 16.26) rotate(-36.95)"/><rect x="89.54" y="41.96" width="6.23" height="1.67" rx="0.84" transform="translate(-8.98 52.06) rotate(-30)"/><g class="cls-8"><path class="cls-9" d="M35.27,64.09l-29.49-17c-1-.56-.85-1.53.27-2.17L68,9.12A4.21,4.21,0,0,1,71.76,9l29.5,17c1,.56.84,1.53-.27,2.18L39,63.93A4.17,4.17,0,0,1,35.27,64.09Z"/><polygon class="cls-7" points="67.85 19.88 65.78 18.68 66.35 18.36 68.42 19.55 67.85 19.88"/><polygon class="cls-7" points="65.61 21.21 63.54 20.02 64.11 19.69 66.18 20.89 65.61 21.21"/><polygon class="cls-7" points="84.39 29.43 82.32 28.23 82.89 27.91 84.96 29.1 84.39 29.43"/><polygon class="cls-7" points="82.15 30.76 80.08 29.57 80.65 29.24 82.72 30.44 82.15 30.76"/><polygon class="cls-7" points="59.69 24.69 57.62 23.5 58.19 23.17 60.25 24.36 59.69 24.69"/><polygon class="cls-7" points="57.45 26.03 55.38 24.83 55.95 24.51 58.02 25.7 57.45 26.03"/><polygon class="cls-7" points="76.23 34.24 74.16 33.05 74.73 32.72 76.8 33.91 76.23 34.24"/><polygon class="cls-7" points="73.99 35.58 71.92 34.38 72.49 34.06 74.56 35.25 73.99 35.58"/><polygon class="cls-7" points="51.36 29.4 49.29 28.21 49.85 27.88 51.92 29.08 51.36 29.4"/><polygon class="cls-7" points="49.12 30.74 47.05 29.54 47.61 29.22 49.68 30.41 49.12 30.74"/><polygon class="cls-7" points="67.9 38.95 65.83 37.76 66.39 37.43 68.46 38.63 67.9 38.95"/><polygon class="cls-7" points="65.66 40.29 63.59 39.09 64.15 38.77 66.22 39.96 65.66 40.29"/><polygon class="cls-7" points="43.12 34.17 41.05 32.98 41.62 32.65 43.68 33.84 43.12 34.17"/><polygon class="cls-7" points="40.88 35.51 38.81 34.31 39.38 33.99 41.45 35.18 40.88 35.51"/><polygon class="cls-7" points="59.66 43.72 57.59 42.53 58.16 42.2 60.23 43.39 59.66 43.72"/><polygon class="cls-7" points="57.42 45.06 55.35 43.86 55.92 43.54 57.99 44.73 57.42 45.06"/><polygon class="cls-7" points="34.87 38.93 32.8 37.74 33.37 37.41 35.44 38.61 34.87 38.93"/><polygon class="cls-7" points="32.63 40.27 30.57 39.07 31.13 38.75 33.2 39.94 32.63 40.27"/><polygon class="cls-7" points="51.41 48.48 49.34 47.29 49.91 46.96 51.98 48.16 51.41 48.48"/><polygon class="cls-7" points="49.17 49.82 47.11 48.62 47.67 48.3 49.74 49.49 49.17 49.82"/><polygon class="cls-7" points="26.61 43.69 24.54 42.49 25.11 42.17 27.18 43.36 26.61 43.69"/><polygon class="cls-7" points="24.37 45.02 22.3 43.83 22.87 43.5 24.94 44.7 24.37 45.02"/><polygon class="cls-7" points="43.15 53.24 41.08 52.04 41.65 51.72 43.72 52.91 43.15 53.24"/><polygon class="cls-7" points="40.91 54.57 38.85 53.38 39.41 53.05 41.48 54.25 40.91 54.57"/><polygon class="cls-7" points="94.5 31.91 61.51 12.87 62.07 12.54 95.06 31.59 94.5 31.91"/><polygon class="cls-7" points="86.25 36.68 53.26 17.63 53.82 17.3 86.81 36.35 86.25 36.68"/><polygon class="cls-7" points="77.98 41.45 44.99 22.4 45.55 22.08 78.54 41.13 77.98 41.45"/><polygon class="cls-7" points="69.75 46.2 36.76 27.15 37.33 26.83 70.32 45.88 69.75 46.2"/><polygon class="cls-7" points="61.51 50.96 28.52 31.91 29.08 31.59 62.07 50.64 61.51 50.96"/><polygon class="cls-7" points="53.26 55.72 20.27 36.68 20.83 36.35 53.82 55.4 53.26 55.72"/><polygon class="cls-7" points="45.08 60.45 12.08 41.4 12.65 41.08 45.64 60.12 45.08 60.45"/></g><path class="cls-10" d="M35.27,64.09l-29.49-17c-1-.56-.85-1.53.27-2.17L68,9.12A4.21,4.21,0,0,1,71.76,9l29.5,17c1,.56.84,1.53-.27,2.18L39,63.93A4.17,4.17,0,0,1,35.27,64.09Z"/><g class="cls-11"><polygon class="cls-7" points="45.56 22.07 39.2 25.74 39.2 63.84 45.56 60.17 45.56 22.07"/><polygon class="cls-7" points="86.18 17.29 76.32 11.6 76.32 42.41 86.18 36.72 86.18 17.29"/><path class="cls-7" d="M61.2,51.14l9.56-5.52v-37A4.46,4.46,0,0,0,68,9.12L61.2,13Z"/><path class="cls-7" d="M9.32,43,6.05,44.89c-1.12.64-1.24,1.61-.27,2.17l3.54,2Z"/><path class="cls-7" d="M101.26,26,88.45,18.6V35.41L101,28.17C102.1,27.52,102.22,26.55,101.26,26Z"/><polygon class="cls-7" points="20.15 55.36 26.83 59.22 26.83 32.89 20.15 36.74 20.15 55.36"/></g><path class="cls-7" d="M30.62,48.11h0V40.53a1,1,0,0,0-.47-.74c-.26-.15-.48-.06-.48.2v7.14L20,41.56v-7.2a1,1,0,0,0-.47-.75c-.26-.15-.47-.06-.47.2v7.57a.13.13,0,0,0,0,.06.08.08,0,0,0,0,0,1,1,0,0,0,.47.75L24.37,45v7.57a1,1,0,0,0,.48.75c.26.15.47.06.47-.2V45.57l4.84,2.79c.26.15.47.06.47-.2A.43.43,0,0,1,30.62,48.11Z"/><path class="cls-7" d="M88.49,14.57h0V7A1,1,0,0,0,88,6.25c-.26-.15-.48-.06-.48.2V13.6L77.88,8V.82a1,1,0,0,0-.47-.75c-.26-.15-.47-.06-.47.2V7.84a.13.13,0,0,0,0,.06.09.09,0,0,0,0,0,1,1,0,0,0,.47.74l4.83,2.8v7.57a1,1,0,0,0,.48.74c.26.16.47.07.47-.2V12L88,14.82c.26.15.47.06.47-.2A.43.43,0,0,1,88.49,14.57Z"/></g></g></g></svg>