<svg width="128" height="48" viewBox="0 0 128 48" fill="none" xmlns="http://www.w3.org/2000/svg">
<path d="M31.7499 43.6179V35L42.1497 47.9998L31.7499 43.6179Z" fill="#B1B6C2"/>
<path d="M31.7499 43.6179V35L22 47.9998L31.7499 43.6179Z" fill="#D8DBE4"/>
<path d="M31.7517 43.4492L22.0018 47.9991H42.1515L31.7517 43.4492Z" fill="#6F768B"/>
<path d="M20.8412 37H25.8452L33.9452 11.8H29.3732L23.3972 32.248L17.4572 11.8H12.7412L20.8412 37ZM37.7905 37H54.3865V33.04H42.1105V26.056H52.2265V22.168H42.1105V15.76H54.3865V11.8H37.7905V37ZM59.2709 37H63.4469V18.568L74.5349 37H78.7829V11.8H74.6069V29.728L63.8069 11.8H59.2709V37ZM89.5807 37H97.9687C101.389 37 103.009 35.38 103.009 31.96V11.8H98.6887V31.708C98.6887 32.68 98.3287 33.04 97.3567 33.04H90.2287C89.2207 33.04 88.8607 32.68 88.8607 31.708V11.8H84.5407V31.96C84.5407 35.38 86.1607 37 89.5807 37ZM108.806 37H125.402V33.04H113.126V26.056H123.242V22.168H113.126V15.76H125.402V11.8H108.806V37Z" fill="white"/>
<path d="M1.91844 32H2.83844V19.44L11.0384 32H11.9784V18H11.0584V30.46L2.93844 18H1.91844V32Z" fill="white"/>
<path d="M44.39 45H44.73V42.945C44.995 42.775 45.245 42.63 45.59 42.63H45.78V42.3H45.59C45.2 42.3 44.97 42.49 44.73 42.69V42.3H44.39V45ZM48.4506 43.72V42.98C48.4506 42.52 48.2306 42.3 47.7706 42.3H47.0606C46.6006 42.3 46.3806 42.52 46.3806 42.98V44.32C46.3806 44.78 46.6006 45 47.0606 45H47.7706C48.2306 45 48.4506 44.78 48.4506 44.32V44.155H48.1106V44.35C48.1106 44.6 48.0106 44.7 47.7606 44.7H47.0706C46.8206 44.7 46.7206 44.6 46.7206 44.35V43.72H48.4506ZM47.0706 42.6H47.7606C48.0156 42.6 48.1106 42.7 48.1106 42.95V43.44H46.7206V42.95C46.7206 42.7 46.8206 42.6 47.0706 42.6ZM50.0305 45.02C50.5205 45.02 50.7705 44.895 50.9955 44.63V45H51.3355V42.98C51.3355 42.52 51.1155 42.3 50.6555 42.3H50.0155C49.5555 42.3 49.3355 42.52 49.3355 42.98V43.025H49.6755V42.95C49.6755 42.7 49.7755 42.6 50.0255 42.6H50.6455C50.8955 42.6 50.9955 42.7 50.9955 42.95V43.385C50.5555 43.405 50.1705 43.435 49.9255 43.46C49.4655 43.505 49.2455 43.66 49.2455 44.22C49.2455 44.78 49.4655 45.02 50.0305 45.02ZM50.0355 44.72C49.6855 44.72 49.5855 44.6 49.5855 44.22C49.5855 43.84 49.6855 43.77 49.9355 43.74L50.9955 43.62V44.395C50.7005 44.605 50.4805 44.72 50.0355 44.72ZM52.3198 45H52.6598V41.35H52.3198V45ZM53.6014 43.52H55.0814V43.18H53.6014V43.52ZM56.7425 45H57.0775V44.69H56.7525C56.5025 44.69 56.4025 44.59 56.4025 44.34V42.6H57.0775V42.3H56.4025V41.65H56.0625V42.3H55.6625V42.6H56.0625V44.32C56.0625 44.78 56.2825 45 56.7425 45ZM57.8411 41.89H58.2311V41.45H57.8411V41.89ZM57.8661 45H58.2061V42.3H57.8661V45ZM62.0777 42.27C61.6627 42.27 61.4027 42.45 61.1477 42.685C61.0677 42.405 60.8477 42.27 60.4577 42.27C60.0327 42.27 59.8227 42.435 59.5577 42.66V42.3H59.2177V45H59.5577V42.905C59.8527 42.695 60.0727 42.58 60.4527 42.58C60.7377 42.58 60.8377 42.68 60.8377 42.93V45H61.1777V42.95V42.905C61.4677 42.7 61.6977 42.58 62.0727 42.58C62.3577 42.58 62.4577 42.68 62.4577 42.93V45H62.7977V42.95C62.7977 42.49 62.5777 42.27 62.0777 42.27ZM65.7637 43.72V42.98C65.7637 42.52 65.5437 42.3 65.0837 42.3H64.3737C63.9137 42.3 63.6937 42.52 63.6937 42.98V44.32C63.6937 44.78 63.9137 45 64.3737 45H65.0837C65.5437 45 65.7637 44.78 65.7637 44.32V44.155H65.4237V44.35C65.4237 44.6 65.3237 44.7 65.0737 44.7H64.3837C64.1337 44.7 64.0337 44.6 64.0337 44.35V43.72H65.7637ZM64.3837 42.6H65.0737C65.3287 42.6 65.4237 42.7 65.4237 42.95V43.44H64.0337V42.95C64.0337 42.7 64.1337 42.6 64.3837 42.6ZM68.6148 45H69.3048C69.7648 45 69.9848 44.78 69.9848 44.205C69.9848 43.74 69.7948 43.58 69.4048 43.515L68.6198 43.385C68.4098 43.35 68.3098 43.3 68.3098 43.03C68.3098 42.71 68.4098 42.61 68.6598 42.61H69.2398C69.4898 42.61 69.5898 42.71 69.5898 43.01V43.07H69.9198V43.03C69.9198 42.52 69.6998 42.3 69.2398 42.3H68.6498C68.1898 42.3 67.9698 42.52 67.9698 43.045C67.9698 43.465 68.1598 43.625 68.5498 43.69L69.3348 43.82C69.5448 43.855 69.6448 43.905 69.6448 44.22C69.6448 44.59 69.5448 44.69 69.2948 44.69H68.6148C68.3648 44.69 68.2648 44.59 68.2648 44.24V44.185H67.9348V44.22C67.9348 44.78 68.1548 45 68.6148 45ZM70.8332 45.8H71.1732V44.63C71.4382 44.855 71.6482 45.02 72.1632 45.02C72.7532 45.02 72.9732 44.8 72.9732 44.34V42.96C72.9732 42.5 72.7532 42.28 72.1632 42.28C71.6482 42.28 71.4382 42.445 71.1732 42.67V42.3H70.8332V45.8ZM72.1582 44.71C71.6882 44.71 71.4682 44.595 71.1732 44.385V42.915C71.4682 42.705 71.6882 42.59 72.1582 42.59C72.5332 42.59 72.6332 42.69 72.6332 42.94V44.36C72.6332 44.61 72.5332 44.71 72.1582 44.71ZM74.5145 45H75.2595C75.7195 45 75.9395 44.78 75.9395 44.32V42.98C75.9395 42.52 75.7195 42.3 75.2595 42.3H74.5145C74.0545 42.3 73.8345 42.52 73.8345 42.98V44.32C73.8345 44.78 74.0545 45 74.5145 45ZM74.5245 44.69C74.2745 44.69 74.1745 44.59 74.1745 44.34V42.96C74.1745 42.71 74.2745 42.61 74.5245 42.61H75.2495C75.4995 42.61 75.5995 42.71 75.5995 42.96V44.34C75.5995 44.59 75.4995 44.69 75.2495 44.69H74.5245ZM76.8582 45H77.1982V42.945C77.4632 42.775 77.7132 42.63 78.0582 42.63H78.2482V42.3H78.0582C77.6682 42.3 77.4382 42.49 77.1982 42.69V42.3H76.8582V45ZM79.8071 45H80.1421V44.69H79.8171C79.5671 44.69 79.4671 44.59 79.4671 44.34V42.6H80.1421V42.3H79.4671V41.65H79.1271V42.3H78.7271V42.6H79.1271V44.32C79.1271 44.78 79.3471 45 79.8071 45ZM81.4117 45H82.1017C82.5617 45 82.7817 44.78 82.7817 44.205C82.7817 43.74 82.5917 43.58 82.2017 43.515L81.4167 43.385C81.2067 43.35 81.1067 43.3 81.1067 43.03C81.1067 42.71 81.2067 42.61 81.4567 42.61H82.0367C82.2867 42.61 82.3867 42.71 82.3867 43.01V43.07H82.7167V43.03C82.7167 42.52 82.4967 42.3 82.0367 42.3H81.4467C80.9867 42.3 80.7667 42.52 80.7667 43.045C80.7667 43.465 80.9567 43.625 81.3467 43.69L82.1317 43.82C82.3417 43.855 82.4417 43.905 82.4417 44.22C82.4417 44.59 82.3417 44.69 82.0917 44.69H81.4117C81.1617 44.69 81.0617 44.59 81.0617 44.24V44.185H80.7317V44.22C80.7317 44.78 80.9517 45 81.4117 45ZM85.7112 45.02C86.2012 45.02 86.4512 44.895 86.6762 44.63V45H87.0162V42.98C87.0162 42.52 86.7962 42.3 86.3362 42.3H85.6962C85.2362 42.3 85.0162 42.52 85.0162 42.98V43.025H85.3562V42.95C85.3562 42.7 85.4562 42.6 85.7062 42.6H86.3262C86.5762 42.6 86.6762 42.7 86.6762 42.95V43.385C86.2362 43.405 85.8512 43.435 85.6062 43.46C85.1462 43.505 84.9262 43.66 84.9262 44.22C84.9262 44.78 85.1462 45.02 85.7112 45.02ZM85.7162 44.72C85.3662 44.72 85.2662 44.6 85.2662 44.22C85.2662 43.84 85.3662 43.77 85.6162 43.74L86.6762 43.62V44.395C86.3812 44.605 86.1612 44.72 85.7162 44.72ZM87.9705 45H88.3105V42.91C88.6055 42.7 88.8255 42.585 89.2555 42.585C89.5955 42.585 89.6905 42.685 89.6905 42.935V45H90.0305V42.955C90.0305 42.495 89.8105 42.275 89.2605 42.275C88.7855 42.275 88.5755 42.44 88.3105 42.665V42.3H87.9705V45ZM91.6679 45.02C92.1579 45.02 92.4079 44.895 92.6329 44.63V45H92.9729V42.98C92.9729 42.52 92.7529 42.3 92.2929 42.3H91.6529C91.1929 42.3 90.9729 42.52 90.9729 42.98V43.025H91.3129V42.95C91.3129 42.7 91.4129 42.6 91.6629 42.6H92.2829C92.5329 42.6 92.6329 42.7 92.6329 42.95V43.385C92.1929 43.405 91.8079 43.435 91.5629 43.46C91.1029 43.505 90.8829 43.66 90.8829 44.22C90.8829 44.78 91.1029 45.02 91.6679 45.02ZM91.6729 44.72C91.3229 44.72 91.2229 44.6 91.2229 44.22C91.2229 43.84 91.3229 43.77 91.5729 43.74L92.6329 43.62V44.395C92.3379 44.605 92.1179 44.72 91.6729 44.72ZM93.9571 45H94.2971V41.35H93.9571V45ZM95.7038 45.8H96.0238L97.3388 42.3H96.9988L96.1688 44.575L95.3688 42.3H95.0188L95.9988 45L95.7038 45.8ZM98.8876 45H99.2226V44.69H98.8976C98.6476 44.69 98.5476 44.59 98.5476 44.34V42.6H99.2226V42.3H98.5476V41.65H98.2076V42.3H97.8076V42.6H98.2076V44.32C98.2076 44.78 98.4276 45 98.8876 45ZM99.9862 41.89H100.376V41.45H99.9862V41.89ZM100.011 45H100.351V42.3H100.011V45ZM101.983 45H102.663C103.123 45 103.343 44.78 103.343 44.32V44.14H103.003V44.34C103.003 44.59 102.903 44.69 102.653 44.69H101.993C101.743 44.69 101.643 44.59 101.643 44.34V42.96C101.643 42.71 101.743 42.61 101.993 42.61H102.653C102.903 42.61 103.003 42.71 103.003 42.96V43.16H103.343V42.98C103.343 42.52 103.123 42.3 102.663 42.3H101.983C101.523 42.3 101.303 42.52 101.303 42.98V44.32C101.303 44.78 101.523 45 101.983 45ZM104.754 45H105.444C105.904 45 106.124 44.78 106.124 44.205C106.124 43.74 105.934 43.58 105.544 43.515L104.759 43.385C104.549 43.35 104.449 43.3 104.449 43.03C104.449 42.71 104.549 42.61 104.799 42.61H105.379C105.629 42.61 105.729 42.71 105.729 43.01V43.07H106.059V43.03C106.059 42.52 105.839 42.3 105.379 42.3H104.789C104.329 42.3 104.109 42.52 104.109 43.045C104.109 43.465 104.299 43.625 104.689 43.69L105.474 43.82C105.684 43.855 105.784 43.905 105.784 44.22C105.784 44.59 105.684 44.69 105.434 44.69H104.754C104.504 44.69 104.404 44.59 104.404 44.24V44.185H104.074V44.22C104.074 44.78 104.294 45 104.754 45Z" fill="#FBBA28"/>
</svg>
